<svg id="Capa_1" enable-background="new 0 0 512 512" height="512" viewBox="0 0 512 512" width="512" xmlns="http://www.w3.org/2000/svg"><g><path d="m158.5 127.5h15v95h-15z" fill="#fff0d3"/><path d="m166 135c-37.22 0-67.5-30.28-67.5-67.5s30.28-67.5 67.5-67.5 67.5 30.28 67.5 67.5-30.28 67.5-67.5 67.5zm0-120c-28.949 0-52.5 23.552-52.5 52.5s23.551 52.5 52.5 52.5 52.5-23.552 52.5-52.5-23.551-52.5-52.5-52.5z" fill="#fff0d3"/><path d="m230.205 46.646-47.199-2.546-17.006-44.1-12.859 76.447 12.859 19.991 39.681 25.682-12.164-45.673z" fill="#30b054"/><path d="m166 96.438v-96.438l-17.006 44.1-47.199 2.546 36.689 29.801-12.165 45.673z" fill="#80bf63"/><path d="m151 245c-4.136 0-7.5-3.364-7.5-7.5s3.364-7.5 7.5-7.5h15c4.142 0 7.5-3.357 7.5-7.5s-3.358-7.5-7.5-7.5h-15c-12.407 0-22.5 10.094-22.5 22.5s10.093 22.5 22.5 22.5h60v-15z" fill="#ffa754"/><path d="m233.501 292.5v196.592l-24.87 8.29c-3.93 1.31-6.053 5.557-4.744 9.487 1.31 3.93 5.559 6.054 9.487 4.744l29.998-10c3.063-1.021 5.128-3.887 5.128-7.115v-201.998z" fill="#ffa754"/><g fill="#e18f4e"><path d="m308.501 292.5v196.592l24.87 8.29c3.93 1.31 6.053 5.557 4.744 9.487-1.31 3.93-5.559 6.054-9.487 4.744l-29.998-10c-3.063-1.021-5.128-3.887-5.128-7.115v-201.998z"/><path d="m406 185c-4.143 0-7.5 3.357-7.5 7.5 0 28.948-23.552 52.5-52.5 52.5h-15v15h15c37.22 0 67.5-30.28 67.5-67.5 0-4.143-3.357-7.5-7.5-7.5z"/><path d="m270.999 122.5v80c24.853 0 45-20.147 45-45 0-5.261-.912-10.307-2.571-15z"/></g><path d="m270.999 112.5 14.143 30h28.286c-6.179-17.476-22.838-30-42.429-30z" fill="#353535"/><path d="m228.569 142.5c-1.659 4.693-2.571 9.739-2.571 15 0 24.853 20.147 45 45 45 8.284 0 15-20.147 15-45 0-5.261-.304-10.307-.857-15l-14.143-20z" fill="#ffa754"/><path d="m270.999 112.5c-19.592 0-36.25 12.524-42.429 30h56.572c-2.06-17.476-7.613-30-14.143-30z" fill="#4f4f4f"/><path d="m331 232.5c8.284 0 15 6.716 15 15v10c0 8.284-6.716 15-15 15s-15-6.716-15-15l-15-5h15v-5c0-8.284 6.716-15 15-15z" fill="#ffe2a8"/><path d="m211 232.5c-8.284 0-15 6.716-15 15v10c0 8.284 6.716 15 15 15s15-6.716 15-15l15-5h-15v-5c0-8.284-6.716-15-15-15z" fill="#fff0d3"/><path d="m226 322.5v60c0 8.284 6.716 15 15 15s15-6.716 15-15v-17.571c4.693 1.659 9.739 2.571 15 2.571s10.307-.912 15-2.571l20-72.429z" fill="#4f4f4f"/><path d="m286 292.5v90c0 8.284 6.716 15 15 15s15-6.716 15-15v-60z" fill="#353535"/><path d="m296 232.5h-30l20 90h30v-70c0-11.046-8.954-20-20-20z" fill="#ffe2a8"/><path d="m266 232.5h-20c-11.046 0-20 8.954-20 20v70h60v-70c0-11.046-8.954-20-20-20z" fill="#fff0d3"/><circle cx="286" cy="262.5" fill="#353535" r="7.5"/><circle cx="286" cy="292.5" fill="#353535" r="7.5"/></g></svg>