<svg id="Capa_1" enable-background="new 0 0 504.5 504.5" height="512" viewBox="0 0 504.5 504.5" width="512" xmlns="http://www.w3.org/2000/svg"><g><path d="m229.75 252.5h-120c-12.406 0-22.5-10.094-22.5-22.5h15c0 4.136 3.364 7.5 7.5 7.5h120z" fill="#ffb4a9"/><path d="m192.25 285v196.592l-24.87 8.29c-3.93 1.31-6.053 5.557-4.744 9.487 1.31 3.93 5.559 6.054 9.487 4.744l29.998-10c3.063-1.021 5.128-3.887 5.128-7.115v-201.998z" fill="#ffb4a9"/><path d="m267.25 285v196.592l24.87 8.29c3.93 1.31 6.053 5.557 4.744 9.487-1.31 3.93-5.559 6.054-9.487 4.744l-29.998-10c-3.062-1.021-5.128-3.887-5.128-7.115v-201.998z" fill="#ff8d7e"/><path d="m364.75 162.5c-4.143 0-7.5 3.358-7.5 7.5 0 37.22-30.28 67.5-67.5 67.5h-60v15h60c45.49 0 82.5-37.009 82.5-82.5 0-4.142-3.357-7.5-7.5-7.5z" fill="#ff8d7e"/><circle cx="364.75" cy="90" fill="#ffcb63" r="15"/><circle cx="409.75" cy="135" fill="#49c9ff" r="15"/><g fill="#ff4128"><circle cx="409.75" cy="195" r="7.5"/><circle cx="409.75" cy="90" r="7.5"/><path d="m124.75 0v105l29.735-26.238c9.355-8.246 15.265-20.311 15.265-33.762 0-24.853-20.147-45-45-45z"/></g><path d="m139.75 45c0-24.853-6.716-45-15-45-24.853 0-45 20.147-45 45 0 13.451 5.909 25.516 15.265 33.762l29.735 26.238 9.912-26.238c3.118-8.246 5.088-20.311 5.088-33.762z" fill="#ff6753"/><path d="m117.25 75v45c0 4.143 3.357 7.5 7.5 7.5s7.5-3.357 7.5-7.5v-45z" fill="#ff6753"/><path d="m124.75 322.5c-4.143 0-7.5-3.357-7.5-7.5v-165c0-4.143 3.357-7.5 7.5-7.5s7.5 3.357 7.5 7.5v165c0 4.143-3.357 7.5-7.5 7.5z" fill="#fff0d3"/><path d="m94.75 237.5c-4.143 0-7.5-3.357-7.5-7.5 0-12.406 10.094-22.5 22.5-22.5h15c4.143 0 7.5 3.357 7.5 7.5s-3.357 7.5-7.5 7.5h-15c-4.136 0-7.5 3.364-7.5 7.5 0 4.143-3.357 7.5-7.5 7.5z" fill="#ffb4a9"/><path d="m274.75 150v30c0 8.284 6.716 15 15 15s15-6.716 15-15c0-16.568-13.431-30-30-30z" fill="#ffe2a8"/><path d="m184.75 150v30c0 8.284-6.716 15-15 15s-15-6.716-15-15c0-16.568 13.432-30 30-30z" fill="#fff0d3"/><path d="m243.842 134.547-14.092 60.453c24.853 0 45-20.147 45-45z" fill="#ff8d7e"/><path d="m244.75 150c0-5.429-.321-10.634-.908-15.453l-41.095-20.546c-10.927 8.211-17.997 21.279-17.997 35.999 0 24.853 20.147 45 45 45 8.284 0 15-20.147 15-45z" fill="#ffb4a9"/><path d="m229.75 105 14.899 39.832c9.413 3.341 19.543 5.168 30.101 5.168 0-24.853-20.147-45-45-45z" fill="#ffe2a8"/><path d="m229.75 105c-10.132 0-19.481 3.35-27.003 9.002 10.532 14.02 25.066 24.856 41.901 30.831-.854-22.418-7.197-39.833-14.898-39.833z" fill="#fff0d3"/><path d="m184.75 285v90c0 8.284 6.716 15 15 15s15-6.716 15-15v-17.571c4.693 1.659 9.739 2.571 15 2.571s10.307-.912 15-2.571l20-72.429z" fill="#ff6753"/><path d="m244.75 285v90c0 8.284 6.716 15 15 15s15-6.716 15-15v-90z" fill="#ff4128"/><path d="m269.75 225h-30l20 106.822c8.212 1.953 17.881 3.178 30 3.178v-90c0-11.045-8.954-20-20-20z" fill="#ccc"/><path d="m239.75 225h-50c-11.046 0-20 8.954-20 20v60c47.881 0 57.554 19.104 90 26.822v-86.822c0-11.045-8.954-20-20-20z" fill="#ebebeb"/></g></svg>