<svg id="Capa_1" enable-background="new 0 0 504.5 504.5" height="512" viewBox="0 0 504.5 504.5" width="512" xmlns="http://www.w3.org/2000/svg"><g><path d="m173.5 60c0 16.569 13.431 30 30 30s30-13.431 30-30z" fill="#80bf63"/><path d="m173.5 60c16.569 0 30-13.431 30-30s-13.431-30-30-30z" fill="#ff6b8a"/><path d="m173.5 60c0-16.569-13.431-30-30-30s-30 13.431-30 30z" fill="#ffcb63"/><path d="m173.5 60c-16.569 0-30 13.431-30 30s13.431 30 30 30z" fill="#49c9ff"/><path d="m173.5 52.5c-4.142 0-7.5 3.358-7.5 7.5v155h15v-155c0-4.142-3.358-7.5-7.5-7.5z" fill="#dbf4ff"/><path d="m295.268 150v31.258c3.416 8.076 11.412 13.742 20.732 13.742 12.426 0 22.5-10.074 22.5-22.5s-10.074-22.5-22.5-22.5z" fill="#ffa754"/><path d="m277.592 134.547-14.092 60.453c24.853 0 45-20.147 45-45z" fill="#ffb4a9"/><path d="m278.5 150c0-5.429-.321-10.634-.908-15.453l-41.095-20.546c-10.927 8.211-17.997 21.279-17.997 35.999 0 24.853 20.147 45 45 45 8.284 0 15-20.147 15-45z" fill="#ffd9d4"/><path d="m263.5 105 14.899 39.832c9.413 3.341 19.543 5.168 30.101 5.168 0-24.853-20.147-45-45-45z" fill="#ffa754"/><path d="m263.5 105c-10.132 0-19.481 3.35-27.003 9.002 10.532 14.02 25.066 24.856 41.901 30.831-.854-22.418-7.197-39.833-14.898-39.833z" fill="#ffcb63"/><path d="m226 285v196.592l-24.87 8.29c-3.93 1.31-6.053 5.557-4.744 9.487 1.31 3.93 5.559 6.054 9.487 4.744l29.998-10c3.063-1.021 5.128-3.887 5.128-7.115v-201.998z" fill="#ffd9d4"/><path d="m301 285v196.592l24.87 8.29c3.93 1.31 6.053 5.557 4.744 9.487-1.31 3.93-5.559 6.054-9.487 4.744l-29.998-10c-3.063-1.021-5.128-3.887-5.128-7.115v-201.998z" fill="#ffb4a9"/><path d="m383.5 162.5c-4.142 0-7.5 3.357-7.5 7.5 0 37.22-30.28 67.5-67.5 67.5h-45v15h45c45.491 0 82.5-37.01 82.5-82.5 0-4.143-3.358-7.5-7.5-7.5z" fill="#ffe2a8"/><path d="m158.5 237.5c-4.136 0-7.5-3.364-7.5-7.5s3.364-7.5 7.5-7.5h15c4.142 0 7.5-3.357 7.5-7.5s-3.358-7.5-7.5-7.5h-15c-12.407 0-22.5 10.094-22.5 22.5s10.093 22.5 22.5 22.5h105v-15z" fill="#fff0d3"/><path d="m271 225h-15l-7.5 10-7.5-10h-2.5c-11.046 0-20 8.954-20 20v47.5l45 32.5 35-55z" fill="#fff0d3"/><path d="m288.5 225h-2.5l-7.5 90 30-22.5v-47.5c0-11.045-8.954-20-20-20z" fill="#ffe2a8"/><path d="m278.5 270-30 45 30 42.429v17.571c0 8.284 6.716 15 15 15s15-6.716 15-15v-75c-16.568 0-30-13.431-30-30z" fill="#49c9ff"/><path d="m256 255v-30h-15v45c0 12.406-10.093 22.5-22.5 22.5v82.5c0 8.284 6.716 15 15 15s15-6.716 15-15v-17.571c4.693 1.659 9.739 2.571 15 2.571s10.307-.912 15-2.571v-102.429z" fill="#7dd9ff"/><path d="m308.5 307.5c-20.678 0-37.5-16.822-37.5-37.5v-45h15v45c0 12.406 10.093 22.5 22.5 22.5z" fill="#49c9ff"/></g></svg>